<?xml version="1.0" encoding="iso-8859-1"?>
<!-- Generator: Adobe Illustrator 19.0.0, SVG Export Plug-In . SVG Version: 6.00 Build 0)  -->
<svg version="1.1" id="Layer_1" xmlns="http://www.w3.org/2000/svg" xmlns:xlink="http://www.w3.org/1999/xlink" x="0px" y="0px"
	 viewBox="0 0 512 512" style="enable-background:new 0 0 512 512;" xml:space="preserve">
<path style="fill:#FAC15C;" d="M333.4,504.194H178.601c-1.453,0-2.631-1.178-2.631-2.631V146.687c0-1.453,1.178-2.631,2.631-2.631
	H333.4c1.453,0,2.631,1.178,2.631,2.631v354.875C336.031,503.016,334.853,504.194,333.4,504.194z"/>
<g>
	<path style="fill:#ED7149;" d="M311.046,504.194H200.955c-13.799,0-24.985-11.186-24.985-24.985v-31.037h160.061v31.037
		C336.031,493.008,324.845,504.194,311.046,504.194z"/>
	<path style="fill:#ED7149;" d="M319.499,136.052H192.502c-9.13,0-16.532,7.402-16.532,16.532v39.489h160.061v-39.489
		C336.031,143.454,328.63,136.052,319.499,136.052z"/>
</g>
<g>
	<rect x="199.982" y="440.37" style="fill:#1D1D1B;" width="16.005" height="15.613"/>
	<rect x="223.984" y="440.37" style="fill:#1D1D1B;" width="16.006" height="15.613"/>
	<rect x="247.997" y="440.37" style="fill:#1D1D1B;" width="16.005" height="15.613"/>
	<rect x="272.01" y="440.37" style="fill:#1D1D1B;" width="16.006" height="15.613"/>
	<rect x="296.012" y="440.37" style="fill:#1D1D1B;" width="16.005" height="15.613"/>
	<rect x="199.982" y="184.265" style="fill:#1D1D1B;" width="16.005" height="15.613"/>
	<rect x="223.984" y="184.265" style="fill:#1D1D1B;" width="16.006" height="15.613"/>
	<rect x="247.997" y="184.265" style="fill:#1D1D1B;" width="16.005" height="15.613"/>
	<rect x="272.01" y="184.265" style="fill:#1D1D1B;" width="16.006" height="15.613"/>
	<rect x="296.012" y="184.265" style="fill:#1D1D1B;" width="16.005" height="15.613"/>
	<path style="fill:#1D1D1B;" d="M318.376,128.441l-40.797-38.358c1.429-3.056,2.234-6.462,2.234-10.053
		c0-10.397-6.699-19.253-16.006-22.492v-9.521h-15.613v9.521c-9.306,3.239-16.006,12.095-16.006,22.492
		c0,3.591,0.804,6.997,2.234,10.053l-40.797,38.358c-14.31,1.644-25.462,13.824-25.462,28.566v326.232
		c0,15.859,12.903,28.761,28.762,28.761h118.151c15.86,0,28.762-12.903,28.762-28.761V157.007
		C343.838,142.265,332.686,130.084,318.376,128.441z M256,103.844c3.85,0,7.486-0.924,10.707-2.553l28.67,26.955h-78.753
		l28.67-26.955C248.515,102.92,252.151,103.844,256,103.844z M256,71.831c4.522,0,8.2,3.678,8.2,8.2c0,4.522-3.678,8.2-8.2,8.2
		c-4.522,0-8.2-3.678-8.2-8.2C247.801,75.51,251.48,71.831,256,71.831z M315.075,496.387H196.925
		c-7.251,0-13.149-5.899-13.149-13.148v-27.26h8.2v-15.613h-8.2V199.88h8.2v-15.613h-8.2v-27.259c0-7.25,5.899-13.148,13.149-13.148
		h118.151c7.251,0,13.149,5.899,13.149,13.148v27.259h-8.2v15.613h8.2v240.486h-8.2v15.613h8.2v27.26
		C328.225,490.488,322.326,496.387,315.075,496.387z"/>
	<rect x="248.195" y="24.013" style="fill:#1D1D1B;" width="15.613" height="16.006"/>
	<rect x="248.163" style="fill:#1D1D1B;" width="15.613" height="16.005"/>
</g>
<g>
</g>
<g>
</g>
<g>
</g>
<g>
</g>
<g>
</g>
<g>
</g>
<g>
</g>
<g>
</g>
<g>
</g>
<g>
</g>
<g>
</g>
<g>
</g>
<g>
</g>
<g>
</g>
<g>
</g>
</svg>
